<svg width="255" height="220" viewBox="0 0 255 220" fill="none" xmlns="http://www.w3.org/2000/svg">
<path d="M15.1841 192.34C7.21644 190.536 1.65378 185.65 1.65378 176.855C1.65378 167.083 9.99759 161.595 18.3414 161.595C27.8879 161.595 34.9537 168.511 34.9537 176.855V177.907C34.9537 178.809 34.2022 179.561 33.3 179.561H28.865C27.9632 179.561 27.2113 178.809 27.2113 177.907V176.855C27.2113 171.443 22.4005 169.338 18.2661 169.338C13.0043 169.338 9.32095 172.269 9.32095 176.855C9.32095 183.996 16.2365 184.747 21.4984 186.025C30.7444 188.28 36.5322 193.467 36.5322 202.863C36.5322 213.237 27.6624 219.776 18.2661 219.776C7.81778 219.776 0 212.109 0 202.863V201.585C0 200.683 0.751585 199.932 1.65378 199.932H6.16401C7.06584 199.932 7.81778 200.683 7.81778 201.585V202.863C7.81778 208.125 12.1774 212.034 18.2661 212.034C24.3548 212.034 28.7148 208.05 28.7148 202.863C28.7901 195.271 23.3777 194.219 15.1841 192.34Z" fill="#7025BA"/>
<path d="M39.4702 192.97C40.1465 184.475 46.3858 177.56 56.0825 177.56C65.8546 177.56 72.0935 184.475 72.6949 192.97C72.9204 196.202 72.9204 201.088 72.6949 204.32C72.0186 212.814 65.7793 219.73 56.0825 219.73C46.3105 219.73 40.0715 212.814 39.4702 204.32C39.2446 201.088 39.2446 196.202 39.4702 192.97ZM46.7616 204.32C47.0621 208.605 50.5199 212.438 56.0825 212.438C61.6452 212.438 65.103 208.605 65.4035 204.32C65.629 201.013 65.629 196.277 65.4035 192.97C65.103 188.685 61.6452 184.851 56.0825 184.851C50.5199 184.851 47.0621 188.685 46.7616 192.97C46.536 196.277 46.536 201.013 46.7616 204.32Z" fill="#7025BA"/>
<path d="M84.1423 217.371C84.1423 218.273 83.3904 219.025 82.4885 219.025H78.4294C77.5272 219.025 76.7756 218.273 76.7756 217.371V163.249C76.7756 162.347 77.5272 161.595 78.4294 161.595H82.4885C83.3904 161.595 84.1423 162.347 84.1423 163.249V217.371Z" fill="#7025BA"/>
<path d="M88.7146 204.442C88.489 201.209 88.489 196.323 88.7146 193.091C89.3912 184.597 95.6302 177.682 104.124 177.682C107.883 177.682 110.063 179.711 111.641 179.711C112.844 179.711 113.445 179.26 113.445 177.682V163.249C113.445 162.347 114.197 161.595 115.099 161.595H119.158C120.06 161.595 120.812 162.347 120.812 163.249V217.371C120.812 218.273 120.06 219.025 119.158 219.025H116.377C115.926 219.025 115.55 218.799 115.249 218.423C114.798 217.822 114.047 217.146 113.22 217.146C110.89 217.146 110.138 219.852 104.124 219.852C95.6302 219.852 89.3159 212.936 88.7146 204.442ZM95.6302 204.442C95.9307 208.726 99.3884 212.56 104.951 212.56C110.589 212.56 113.972 208.726 114.272 204.442C114.498 201.135 114.498 196.399 114.272 193.091C113.972 188.806 110.514 184.973 104.951 184.973C99.3135 184.973 95.9307 188.806 95.6302 193.091C95.3293 196.399 95.3293 201.135 95.6302 204.442Z" fill="#7025BA"/>
<path d="M133.226 201.208C132.775 201.208 132.399 201.508 132.399 202.035C132.399 209.401 136.233 212.633 141.795 212.633C146.005 212.633 149.162 210.529 150.139 207.522C150.44 206.469 151.266 206.169 152.018 206.169H156.153C156.979 206.169 157.731 206.62 157.506 207.822C156.529 214.888 150.214 220 141.72 220C131.948 220 125.709 213.084 125.108 204.59C124.882 201.358 124.882 196.472 125.108 193.24C125.784 184.746 132.023 177.83 141.72 177.83C151.567 177.83 157.957 183.919 157.957 194.066V199.704C157.957 200.606 157.205 201.358 156.303 201.358H133.226V201.208ZM132.549 193.916C132.549 194.367 132.85 194.743 133.376 194.743H150.289C150.74 194.743 151.116 194.442 151.116 193.916C151.116 188.278 146.982 185.046 141.946 185.046C136.308 185.046 132.549 188.955 132.549 193.916Z" fill="#7025BA"/>
<path d="M182.634 185.663C176.244 185.663 170.456 188.97 170.456 197.915V217.384C170.456 218.286 169.705 219.038 168.803 219.038H164.744C163.841 219.038 163.09 218.286 163.09 217.384V180.025C163.09 179.123 163.841 178.371 164.744 178.371H167.525C168.427 178.371 168.878 178.822 169.179 180.025C169.404 181.077 169.404 182.881 170.607 182.881C172.561 182.881 173.914 178.446 182.634 178.446H184.288C185.19 178.446 185.941 179.198 185.941 180.1V184.084C185.941 184.986 185.19 185.738 184.288 185.738H182.634V185.663Z" fill="#7025BA"/>
<path d="M194.106 201.208C193.655 201.208 193.279 201.508 193.279 202.035C193.279 209.401 197.113 212.633 202.675 212.633C206.885 212.633 210.042 210.529 211.019 207.522C211.32 206.469 212.146 206.169 212.898 206.169H217.032C217.859 206.169 218.611 206.62 218.385 207.822C217.408 214.888 211.094 220 202.6 220C192.828 220 186.589 213.084 185.987 204.59C185.762 201.358 185.762 196.472 185.987 193.24C186.664 184.746 192.903 177.83 202.6 177.83C212.447 177.83 218.837 183.919 218.837 194.066V199.704C218.837 200.606 218.085 201.358 217.183 201.358H194.106V201.208ZM193.429 193.916C193.429 194.367 193.73 194.743 194.256 194.743H211.169C211.62 194.743 211.996 194.442 211.996 193.916C211.996 188.278 207.862 185.046 202.825 185.046C197.188 185.046 193.429 188.955 193.429 193.916Z" fill="#7025BA"/>
<path d="M222.718 204.442C222.493 201.209 222.493 196.323 222.718 193.091C223.395 184.597 229.634 177.682 238.128 177.682C241.887 177.682 244.067 179.711 245.645 179.711C246.848 179.711 247.449 179.26 247.449 177.682V163.249C247.449 162.347 248.201 161.595 249.103 161.595H253.162C254.064 161.595 254.816 162.347 254.816 163.249V217.371C254.816 218.273 254.064 219.025 253.162 219.025H250.381C249.93 219.025 249.554 218.799 249.253 218.423C248.802 217.822 248.051 217.146 247.224 217.146C244.893 217.146 244.142 219.852 238.128 219.852C229.634 219.852 223.395 212.936 222.718 204.442ZM229.634 204.442C229.935 208.726 233.393 212.56 238.955 212.56C244.593 212.56 247.975 208.726 248.276 204.442C248.502 201.135 248.502 196.399 248.276 193.091C247.975 188.806 244.518 184.973 238.955 184.973C233.317 184.973 229.935 188.806 229.634 193.091C229.409 196.399 229.409 201.135 229.634 204.442Z" fill="#7025BA"/>
<path d="M161.975 41.1621L160.009 39.1962L162.256 36.9494L164.223 34.9834L167.665 31.543C169.983 29.226 169.983 25.4345 167.665 23.1175L164.223 19.6771L163.24 18.6941L157.971 13.4282C140.06 -4.47605 110.839 -4.47605 92.9274 13.4282C75.0157 31.3324 75.0157 60.5408 92.9274 78.445L94.8942 80.4109L87.1676 88.1343C86.0437 89.2577 85.4115 90.7322 85.4115 92.3471C85.4115 93.9619 86.0437 95.4364 87.1676 96.5598L91.6631 101.053L96.9312 106.319C105.641 115.026 117.161 119.8 129.453 119.8C141.746 119.8 153.265 115.026 161.975 106.319C179.957 88.2045 179.957 59.0663 161.975 41.1621ZM98.4063 18.7643C113.298 3.87924 137.601 3.87924 152.563 18.7643L157.831 24.0302L158.814 25.0132C160.009 26.277 160.009 28.243 158.814 29.5068L156.848 31.4728C155.583 32.7366 153.616 32.7366 152.352 31.4728L151.369 30.4898L146.101 25.2239C134.721 13.8494 116.248 13.8494 104.869 25.2239C99.3897 30.7707 96.3693 38.0728 96.3693 45.8663C96.3693 53.6599 99.3897 60.9621 104.939 66.4386L120.813 82.3067L121.797 83.2896C123.904 85.396 126.714 86.4492 129.523 86.4492C132.333 86.4492 135.073 85.396 137.25 83.2896L138.233 82.3067L139.217 81.3237C143.431 77.1109 143.431 70.1599 139.217 65.9471L138.233 64.9642L122.289 49.0961C120.533 47.3408 120.533 44.3919 122.289 42.6366C123.131 41.794 124.326 41.3025 125.52 41.3025C126.714 41.3025 127.908 41.794 128.751 42.6366L144.626 58.5046C152.984 66.8599 152.984 80.4109 144.626 88.7662C136.267 97.1215 122.71 97.1215 114.351 88.7662L109.083 83.5003L108.1 82.5173L104.588 79.0067L98.4063 72.828C83.515 58.0131 83.515 33.7196 98.4063 18.7643ZM156.567 100.702C149.332 107.934 139.709 111.936 129.523 111.936C119.338 111.936 109.715 107.934 102.48 100.702L97.2122 95.4364L96.2288 94.4534C95.0347 93.1896 95.0347 91.2237 96.2288 90.03L98.1956 88.0641C99.4599 86.8705 101.427 86.8705 102.691 88.0641L103.674 89.0471L108.943 94.313C114.632 100 122.078 102.809 129.523 102.809C136.969 102.809 144.485 100 150.104 94.313C161.484 82.9386 161.484 64.4727 150.104 53.0982L134.159 37.16L133.176 36.177C128.962 31.9643 122.008 31.9643 117.793 36.177L115.826 38.143C111.612 42.3557 111.612 49.3068 115.826 53.5195L116.81 54.5025L132.684 70.3705C133.527 71.2131 134.019 72.4067 134.019 73.6003C134.019 74.7939 133.527 75.9875 132.684 76.8301C130.928 78.5854 127.978 78.5854 126.222 76.8301L110.347 60.962C106.273 56.9599 104.096 51.5536 104.096 45.8663C104.096 40.1791 106.344 34.7728 110.347 30.7004C118.706 22.3451 132.263 22.3451 140.622 30.7004L145.89 35.9664L146.873 36.9494L150.315 40.3898L156.496 46.5685C171.458 61.5237 171.458 85.8173 156.567 100.702Z" fill="#7025BA"/>
</svg>
