<svg width="375" height="120" viewBox="0 0 375 120" fill="none" xmlns="http://www.w3.org/2000/svg">
<path d="M134.248 61.5569C126.267 59.7498 120.695 54.8557 120.695 46.0461C120.695 36.2577 129.053 30.7612 137.41 30.7612C146.973 30.7612 154.05 37.6884 154.05 46.0461V47.1003C154.05 48.0036 153.298 48.7568 152.394 48.7568H147.952C147.048 48.7568 146.295 48.0036 146.295 47.1003V46.0461C146.295 40.625 141.476 38.5166 137.335 38.5166C132.064 38.5166 128.375 41.4533 128.375 46.0461C128.375 53.1991 135.302 53.952 140.573 55.2321C149.834 57.491 155.631 62.6861 155.631 72.0981C155.631 82.4888 146.747 89.0395 137.335 89.0395C126.869 89.0395 119.038 81.3595 119.038 72.0981V70.8179C119.038 69.9146 119.791 69.1618 120.695 69.1618H125.213C126.116 69.1618 126.869 69.9146 126.869 70.8179V72.0981C126.869 77.3687 131.236 81.2841 137.335 81.2841C143.434 81.2841 147.801 77.2936 147.801 72.0981C147.876 64.4932 142.455 63.4393 134.248 61.5569Z" fill="#7025BA"/>
<path d="M158.574 62.1882C159.252 53.6796 165.502 46.7524 175.215 46.7524C185.003 46.7524 191.252 53.6796 191.855 62.1882C192.08 65.4258 192.08 70.32 191.855 73.5576C191.177 82.0658 184.927 88.993 175.215 88.993C165.426 88.993 159.177 82.0658 158.574 73.5576C158.349 70.32 158.349 65.4258 158.574 62.1882ZM165.878 73.5576C166.179 77.8494 169.643 81.6894 175.215 81.6894C180.786 81.6894 184.25 77.8494 184.551 73.5576C184.777 70.2445 184.777 65.5009 184.551 62.1882C184.25 57.8963 180.786 54.0564 175.215 54.0564C169.643 54.0564 166.179 57.8963 165.878 62.1882C165.652 65.5009 165.652 70.2445 165.878 73.5576Z" fill="#7025BA"/>
<path d="M203.321 86.6301C203.321 87.5334 202.568 88.2866 201.665 88.2866H197.599C196.695 88.2866 195.942 87.5334 195.942 86.6301V32.4178C195.942 31.5141 196.695 30.7612 197.599 30.7612H201.665C202.568 30.7612 203.321 31.5141 203.321 32.4178V86.6301Z" fill="#7025BA"/>
<path d="M207.901 73.6792C207.675 70.4415 207.675 65.5474 207.901 62.3097C208.579 53.8015 214.828 46.8744 223.336 46.8744C227.101 46.8744 229.285 48.9073 230.866 48.9073C232.071 48.9073 232.673 48.4555 232.673 46.8744V32.4178C232.673 31.5141 233.426 30.7612 234.33 30.7612H238.395C239.299 30.7612 240.052 31.5141 240.052 32.4178V86.6301C240.052 87.5334 239.299 88.2866 238.395 88.2866H235.61C235.158 88.2866 234.781 88.0607 234.48 87.6843C234.029 87.0819 233.275 86.4042 232.447 86.4042C230.113 86.4042 229.36 89.1149 223.336 89.1149C214.828 89.1149 208.503 82.1878 207.901 73.6792ZM214.828 73.6792C215.129 77.971 218.593 81.811 224.165 81.811C229.812 81.811 233.2 77.971 233.501 73.6792C233.727 70.3665 233.727 65.6228 233.501 62.3097C233.2 58.0179 229.737 54.1779 224.165 54.1779C218.518 54.1779 215.129 58.0179 214.828 62.3097C214.527 65.6228 214.527 70.3665 214.828 73.6792Z" fill="#7025BA"/>
<path d="M252.486 70.44C252.034 70.44 251.658 70.741 251.658 71.2683C251.658 78.6469 255.498 81.8845 261.07 81.8845C265.286 81.8845 268.449 79.7765 269.428 76.7648C269.729 75.7106 270.557 75.4092 271.31 75.4092H275.451C276.279 75.4092 277.033 75.8611 276.807 77.0658C275.828 84.1434 269.503 89.2635 260.995 89.2635C251.206 89.2635 244.957 82.3364 244.355 73.8281C244.129 70.5905 244.129 65.6963 244.355 62.4587C245.032 53.9504 251.282 47.0229 260.995 47.0229C270.858 47.0229 277.259 53.1222 277.259 63.2869V68.934C277.259 69.8376 276.505 70.5905 275.602 70.5905H252.486V70.44ZM251.809 63.1361C251.809 63.5879 252.11 63.9643 252.637 63.9643H269.578C270.03 63.9643 270.406 63.6634 270.406 63.1361C270.406 57.4891 266.266 54.2514 261.22 54.2514C255.573 54.2514 251.809 58.1668 251.809 63.1361Z" fill="#7025BA"/>
<path d="M301.977 54.8688C295.577 54.8688 289.779 58.1816 289.779 67.1416V86.6433C289.779 87.5466 289.026 88.2998 288.123 88.2998H284.057C283.153 88.2998 282.4 87.5466 282.4 86.6433V49.2215C282.4 48.3181 283.153 47.5649 284.057 47.5649H286.842C287.746 47.5649 288.198 48.0168 288.499 49.2215C288.725 50.2757 288.725 52.0827 289.93 52.0827C291.887 52.0827 293.243 47.6404 301.977 47.6404H303.633C304.537 47.6404 305.29 48.3932 305.29 49.2969V53.2874C305.29 54.1911 304.537 54.9439 303.633 54.9439H301.977V54.8688Z" fill="#7025BA"/>
<path d="M313.468 70.44C313.016 70.44 312.639 70.741 312.639 71.2683C312.639 78.6469 316.48 81.8845 322.051 81.8845C326.268 81.8845 329.43 79.7765 330.409 76.7648C330.711 75.7106 331.539 75.4092 332.292 75.4092H336.433C337.261 75.4092 338.014 75.8611 337.788 77.0658C336.809 84.1434 330.485 89.2635 321.976 89.2635C312.188 89.2635 305.938 82.3364 305.336 73.8281C305.11 70.5905 305.11 65.6963 305.336 62.4587C306.014 53.9504 312.263 47.0229 321.976 47.0229C331.84 47.0229 338.24 53.1222 338.24 63.2869V68.934C338.24 69.8376 337.487 70.5905 336.583 70.5905H313.468V70.44ZM312.79 63.1361C312.79 63.5879 313.091 63.9643 313.619 63.9643H330.56C331.011 63.9643 331.388 63.6634 331.388 63.1361C331.388 57.4891 327.247 54.2514 322.202 54.2514C316.555 54.2514 312.79 58.1668 312.79 63.1361Z" fill="#7025BA"/>
<path d="M342.128 73.6792C341.903 70.4415 341.903 65.5474 342.128 62.3097C342.806 53.8015 349.056 46.8744 357.564 46.8744C361.329 46.8744 363.512 48.9073 365.093 48.9073C366.298 48.9073 366.901 48.4555 366.901 46.8744V32.4178C366.901 31.5141 367.653 30.7612 368.557 30.7612H372.623C373.526 30.7612 374.279 31.5141 374.279 32.4178V86.6301C374.279 87.5334 373.526 88.2866 372.623 88.2866H369.837C369.385 88.2866 369.009 88.0607 368.708 87.6843C368.256 87.0819 367.503 86.4042 366.675 86.4042C364.34 86.4042 363.588 89.1149 357.564 89.1149C349.056 89.1149 342.806 82.1878 342.128 73.6792ZM349.056 73.6792C349.357 77.971 352.82 81.811 358.392 81.811C364.039 81.811 367.428 77.971 367.729 73.6792C367.954 70.3665 367.954 65.6228 367.729 62.3097C367.428 58.0179 363.964 54.1779 358.392 54.1779C352.745 54.1779 349.357 58.0179 349.056 62.3097C348.83 65.6228 348.83 70.3665 349.056 73.6792Z" fill="#7025BA"/>
<path d="M82.6192 41.2308L80.6492 39.2615L82.9007 37.011L84.8707 35.0418L88.3183 31.5956C90.6402 29.2747 90.6402 25.4769 88.3183 23.156L84.8707 19.7099L83.8857 18.7253L78.6087 13.4505C60.6672 -4.48352 31.3978 -4.48352 13.4562 13.4505C-4.4854 31.3846 -4.4854 60.6418 13.4562 78.5758L15.4262 80.5451L7.68674 88.2813C6.56099 89.4066 5.92776 90.8835 5.92776 92.5011C5.92776 94.1187 6.56099 95.5956 7.68674 96.7209L12.1897 101.222L17.4667 106.497C26.1912 115.218 37.7301 120 50.0429 120C62.3558 120 73.8947 115.218 82.6192 106.497C100.631 88.3517 100.631 59.1648 82.6192 41.2308ZM18.9442 18.7956C33.8603 3.88571 58.2046 3.88571 73.1911 18.7956L78.468 24.0703L79.4531 25.0549C80.6492 26.3209 80.6492 28.2901 79.4531 29.556L77.483 31.5253C76.2165 32.7912 74.2465 32.7912 72.98 31.5253L71.995 30.5407L66.7181 25.2659C55.3199 13.8725 36.8154 13.8725 25.4172 25.2659C19.9292 30.822 16.9038 38.1363 16.9038 45.9429C16.9038 53.7495 19.9292 61.0637 25.4876 66.5495L41.3888 82.444L42.3738 83.4286C44.4846 85.5385 47.2989 86.5934 50.1133 86.5934C52.9277 86.5934 55.6717 85.5385 57.8528 83.4286L58.8378 82.444L59.8229 81.4593C64.0444 77.2396 64.0444 70.2769 59.8229 66.0571L58.8378 65.0725L42.8663 49.178C41.1073 47.4198 41.1073 44.4659 42.8663 42.7077C43.7106 41.8637 44.9067 41.3714 46.1028 41.3714C47.2989 41.3714 48.495 41.8637 49.3393 42.7077L65.2405 58.6022C73.6132 66.9714 73.6132 80.5451 65.2405 88.9143C56.8678 97.2835 43.2885 97.2835 34.9157 88.9143L29.6388 83.6396L28.6538 82.6549L25.1358 79.1385L18.9442 72.9495C4.02806 58.1099 4.02806 33.7758 18.9442 18.7956ZM77.2016 100.87C69.9546 108.114 60.3154 112.123 50.1133 112.123C39.9112 112.123 30.272 108.114 23.025 100.87L17.7481 95.5956L16.7631 94.611C15.567 93.3451 15.567 91.3758 16.7631 90.1802L18.7331 88.211C19.9996 87.0154 21.9696 87.0154 23.2361 88.211L24.2211 89.1956L29.4981 94.4703C35.1972 100.167 42.6552 102.98 50.1133 102.98C57.5714 102.98 65.0998 100.167 70.7285 94.4703C82.1267 83.0769 82.1267 64.5802 70.7285 53.1868L54.757 37.222L53.772 36.2374C49.5504 32.0176 42.5849 32.0176 38.3633 36.2374L36.3933 38.2066C32.1717 42.4264 32.1717 49.389 36.3933 53.6088L37.3783 54.5934L53.2795 70.4879C54.1238 71.3319 54.6163 72.5275 54.6163 73.7231C54.6163 74.9187 54.1238 76.1143 53.2795 76.9582C51.5205 78.7165 48.5654 78.7165 46.8064 76.9582L30.9053 61.0637C26.8244 57.0549 24.6433 51.6396 24.6433 45.9429C24.6433 40.2462 26.8948 34.8308 30.9053 30.7517C39.278 22.3824 52.8573 22.3824 61.23 30.7517L66.507 36.0264L67.492 37.011L70.9396 40.4571L77.1312 46.6462C92.1177 61.6264 92.1177 85.9604 77.2016 100.87Z" fill="#7025BA"/>
</svg>
